# xmcd
#
# Track frame offsets:
#	150
#	14918
#	32420
#	46323
#	64291
#	78332
#	96439
#	112263
#	124951
#	141394
#	156472
#	169912
#	180799
#
# Disc length: 2640 seconds
# Revision: 0
# Processed by: cddbd v1.5.2PL0 Copyright (c) Steve Scherf et al.
# Submitted via: dBpowerAMP V12.0
#
DISCID=bb0a4e0d
DTITLE=Jessica Ridley - Fit To Be Tied
DYEAR=1900
DGENRE=Country
TTITLE0=Fit To Be Tied
TTITLE1=Hit And Run
TTITLE2=Make It Alright
TTITLE3=Home To Me
TTITLE4=Velvet Sky
TTITLE5=Flaming Red
TTITLE6=Play With You
TTITLE7=Bluer Than Bluegrass
TTITLE8=Cinderella Shoes
TTITLE9=Misery
TTITLE10=Rain
TTITLE11=Because I'm Not
TTITLE12=Undone
EXTD=
EXTT0=
EXTT1=
EXTT2=
EXTT3=
EXTT4=
EXTT5=
EXTT6=
EXTT7=
EXTT8=
EXTT9=
EXTT10=
EXTT11=
EXTT12=
PLAYORDER=
